<?xml version="1.0" standalone="no"?>
<!DOCTYPE svg PUBLIC "-//W3C//DTD SVG 20010904//EN"
 "http://www.w3.org/TR/2001/REC-SVG-20010904/DTD/svg10.dtd">
<svg version="1.0" xmlns="http://www.w3.org/2000/svg"
 width="200.000000pt" height="200.000000pt" viewBox="0 0 200.000000 200.000000"
 preserveAspectRatio="xMidYMid meet">

<g transform="translate(0.000000,200.000000) scale(0.100000,-0.100000)"
fill="#000000" stroke="none">
<path d="M860 1847 c0 -12 -7 -186 -15 -387 -8 -201 -15 -395 -15 -432 l0 -67
71 30 c40 16 76 29 81 29 9 0 3 -151 -8 -190 -2 -9 38 -50 111 -109 63 -52
112 -97 110 -101 -3 -4 -46 -23 -97 -41 l-93 -34 70 -6 c39 -4 116 -7 172 -8
l102 -1 5 33 c7 48 59 1267 54 1272 -2 2 -101 9 -219 15 -117 5 -240 12 -271
15 -55 4 -58 3 -58 -18z m220 -164 c0 -27 -3 -65 -6 -85 -6 -33 -10 -38 -34
-38 -52 0 -60 8 -60 60 0 26 3 62 6 79 6 29 9 31 50 31 l44 0 0 -47z m190 -36
c0 -46 -2 -86 -4 -88 -3 -3 -23 -3 -45 -1 l-41 4 0 53 c0 29 3 67 6 84 6 28
10 31 45 31 l39 0 0 -83z m-204 -178 c-3 -17 -6 -56 -6 -85 l0 -54 -39 0 c-22
0 -42 3 -44 8 -3 4 -2 42 0 85 l6 77 45 0 45 0 -7 -31z m-35 -209 c28 0 29 -2
29 -47 0 -27 -3 -65 -6 -85 -6 -37 -8 -38 -50 -38 l-44 0 0 59 c0 83 9 123 27
117 8 -4 28 -6 44 -6z m203 -6 c13 -5 16 -23 16 -90 l0 -84 -29 0 c-54 0 -61
8 -61 65 0 86 9 115 35 115 13 0 30 -3 39 -6z m12 -238 c1 0 -1 -38 -4 -83
l-5 -83 -43 0 -44 0 0 83 c0 46 3 86 6 89 4 5 85 -1 90 -6z"/>
<path d="M210 1384 c0 -53 3 -61 36 -95 29 -30 40 -53 55 -114 17 -72 29 -104
29 -77 0 7 13 12 29 12 16 0 34 7 41 15 10 13 20 8 65 -30 l52 -45 7 31 c4 23
10 30 22 25 9 -3 27 -6 40 -6 23 0 24 -3 24 -64 0 -63 1 -65 42 -100 30 -26
48 -34 62 -30 12 4 22 7 23 8 2 1 23 452 23 487 0 15 -19 18 -142 23 -79 4
-203 9 -275 12 l-133 6 0 -58z m214 -56 c0 -10 -1 -49 -2 -87 l-2 -69 -42 5
c-24 3 -44 6 -44 7 -1 0 1 38 4 84 l5 83 41 -3 c32 -2 41 -7 40 -20z m200 1
c2 -2 1 -39 -1 -81 l-6 -78 -43 0 -44 0 0 86 0 87 45 -6 c26 -2 47 -6 49 -8z"/>
<path d="M195 970 c3 -179 8 -350 11 -380 l5 -56 202 3 c111 2 235 6 276 9
l74 6 -7 91 c-3 49 -6 123 -6 163 l0 74 -24 -12 c-22 -9 -31 -6 -75 26 -36 25
-62 36 -86 36 -32 0 -35 3 -35 28 0 22 -11 36 -50 65 -27 20 -54 37 -59 37 -5
0 -6 -29 -3 -65 l5 -65 -47 0 c-25 0 -49 0 -52 0 -4 -1 -30 72 -58 162 -29 90
-57 172 -64 183 -10 16 -12 -44 -7 -305z m227 -170 c1 -38 2 -78 2 -87 1 -15
-7 -18 -44 -18 l-45 0 -3 88 -3 87 46 0 45 0 2 -70z m198 -15 l0 -85 -45 0
-45 0 0 85 0 85 45 0 45 0 0 -85z"/>
<path d="M1426 953 c-4 -164 -9 -323 -12 -354 l-6 -56 34 -6 c18 -2 34 -4 35
-3 1 1 7 39 12 85 6 46 13 86 15 88 2 2 34 -8 71 -22 38 -14 70 -23 72 -21 2
2 -34 60 -81 128 l-85 125 61 7 c33 3 83 6 110 6 32 0 70 10 115 30 36 17 69
30 72 30 3 0 -22 -19 -57 -41 -48 -30 -82 -43 -138 -53 -41 -7 -77 -16 -80
-19 -3 -3 37 -72 89 -154 53 -81 94 -149 93 -150 -1 -1 -42 13 -91 31 l-90 34
-7 -56 c-3 -32 -5 -58 -3 -60 1 -2 90 1 196 5 l194 8 -3 160 c-2 88 -5 178 -8
201 -5 36 -3 42 15 47 16 4 21 13 21 40 0 31 -4 36 -31 42 -17 4 -136 56 -265
116 -128 60 -236 109 -238 109 -2 0 -7 -134 -10 -297z m384 -128 c0 -33 -2
-35 -35 -35 -33 0 -35 2 -35 35 0 33 2 35 35 35 33 0 35 -2 35 -35z"/>
<path d="M885 951 l-70 -27 -3 -197 -2 -197 32 0 c18 1 91 22 162 49 l130 48
-111 76 -110 77 23 97 c12 54 22 98 21 99 -1 1 -33 -10 -72 -25z"/>
<path d="M0 491 c0 -27 75 -112 136 -153 124 -86 401 -174 565 -181 l63 -2 44
74 43 74 -34 35 c-34 34 -35 34 -66 18 -17 -9 -37 -31 -45 -50 -8 -19 -25 -40
-38 -47 l-23 -12 22 25 c13 13 23 33 23 44 0 11 11 35 24 54 l24 35 -20 22
-21 23 54 25 54 25 -402 0 c-229 0 -403 -4 -403 -9z"/>
<path d="M848 468 c-38 -17 -68 -33 -68 -37 0 -3 20 -21 43 -39 23 -17 53 -41
65 -52 l24 -20 -51 -87 -50 -88 47 -7 c26 -3 95 -7 155 -7 l107 -1 0 29 c0 15
-5 52 -10 81 -6 29 -8 56 -5 58 3 3 30 -2 61 -12 31 -10 57 -16 58 -14 2 2 24
38 50 81 43 70 51 77 80 77 17 0 55 3 84 6 49 6 52 8 52 35 l0 29 -287 -1
-288 0 -67 -31z"/>
<path d="M1530 451 l0 -48 -52 -7 c-29 -3 -72 -6 -95 -6 l-42 0 -57 -95 -56
-94 -36 27 -35 27 7 -55 c4 -30 9 -56 11 -58 7 -7 195 18 292 38 200 42 367
117 457 205 29 29 58 67 64 84 l11 31 -235 0 -234 0 0 -49z"/>
</g>
</svg>
